# xmcd
#
# Track frame offsets: 
#        182
#        11265
#        21100
#        35822
#        46555
#        57952
#        71832
#        84755
#        96425
#        109487
#        131060
#        146865
#        160050
#        171225
#        180447
#        194767
#        207392
#        218687
#        232115
#        241352
#        255715
#        270330
#        281815
#        295805
#        307735
#        323167
#        333005
#
# Disc length: 4561 seconds
#
# Revision: 2
# Processed by: cddbd v1.5.2PL0 Copyright (c) Steve Scherf et al.
# Submitted via: ExactAudioCopyFreeDBPlugin 1.0
#
DISCID=8c11cf1b
DTITLE=Various Artist - Rare Soul From Alabama The South Camp
DYEAR=1989
DGENRE=Soul
TTITLE0=Don Varner - Tear-Stained Face
TTITLE1=Don Varner - When It's Over
TTITLE2=Brenda Varner - Let Me Be a Woman
TTITLE3=Eddie Bradford - You Made Your Bed
TTITLE4=Bill Brandon - Self Preservation
TTITLE5=Tony Borders - What Kind of Spell
TTITLE6=June Edwards - You Ain't Woman Enough (To Take My Man)
TTITLE7=Tony Borders - You Better Believe It
TTITLE8=Don Varner - Masquerade
TTITLE9=Z.Z. Hill - Home Just Ain't Home at Suppertime
TTITLE10=Bill Brandon - Strangest Feeling
TTITLE11=Tony Borders - Cheaters Never Win
TTITLE12=June Edwards - Heaven Help Me (I'm Falling in Love)
TTITLE13=Bill Brandon - All I Need is You
TTITLE14=Buddy Causey - It's a Man's World
TTITLE15=Eddie Bradford - It Sure Was Fun
TTITLE16=Don Varner - One Woman Man
TTITLE17=Bill Brandon - Rainbow Road
TTITLE18=Don Varner - You Left the Water Running
TTITLE19=Joe Perkins - Think I'll Go Somewhere and Cry Myself to Sleep
TTITLE20=Tony Borders - Love and a Friend
TTITLE21=Bill Brandon - I'll Be Your Baby Tonight
TTITLE22=(unknown artist) - Movin' in the Grove
TTITLE23=Brenda Varner - Don't Give Up on Me
TTITLE24=Bill Brandon - Your Big Chance
TTITLE25=(unknown artist) - Close to Me
TTITLE26=Percy Sledge, Jr. - Sugar Makes Everythings Sweeter
EXTD=
EXTT0=
EXTT1=
EXTT2=
EXTT3=
EXTT4=
EXTT5=
EXTT6=
EXTT7=
EXTT8=
EXTT9=
EXTT10=
EXTT11=
EXTT12=
EXTT13=
EXTT14=
EXTT15=
EXTT16=
EXTT17=
EXTT18=
EXTT19=
EXTT20=
EXTT21=
EXTT22=
EXTT23=
EXTT24=
EXTT25=
EXTT26=
PLAYORDER=
